<?xml version="1.0" encoding="UTF-8"?>
<svg id="Layer_7" data-name="Layer 7" xmlns="http://www.w3.org/2000/svg" viewBox="0 0 2642.34 471.92">
  <defs>
    <style>
      .cls-1 {
        fill: #fff;
      }

      .cls-2 {
        fill: #8f0000;
      }

      .cls-3, .cls-4 {
        fill: #bc0000;
      }

      .cls-5 {
        font-family: DINCondensed-Bold, 'DIN Condensed';
        font-size: 514.11px;
        font-weight: 700;
      }

      .cls-4 {
        letter-spacing: 0em;
      }
    </style>
  </defs>
  <g>
    <g>
      <path class="cls-2" d="M51.43,337.77c-4.06-2.67-8.51-230.42-9.88-272.27-.31-9.37,12.78-26.77,21.45-29.02,5.52-1.43,5.21,2.62,5.08,5.84-.85,22.02-14.8,267.02-16.65,295.45Z"/>
      <path class="cls-1" d="M295.82,336.07c-4.59-76.39-9.17-152.78-13.77-229.18-1.24-20.56-2.66-41.1-3.75-61.67-.18-3.42-2.28-8.2,1.53-10.12,4.26-2.15,7.11,2.55,10.35,4.7,12.09,8.03,15.57,18.48,14.99,33.56-3.37,87.52-8.78,263.84-9.34,262.71Z"/>
      <path class="cls-1" d="M102.75,25.79c-.24-4.13-2.2-9.98,3.15-11.73,6.86-2.24,14.38-3.93,21.47-3.49,4,.25,1.79,6.37,1.65,9.73-2.57,59.95-9,245.86-9.92,245.9-.77,.04-13.91-198.54-16.34-240.42Z"/>
      <path class="cls-1" d="M219.09,20.2c-.71-9.34,1.82-10.79,10.29-8.36,15.3,4.39,15.27,4.02,14.72,19.84-2.43,70.13-8.11,221.32-8.58,226.78-.17,0-13.44-199.1-16.43-238.26Z"/>
      <path class="cls-1" d="M162.35,15.04c-.08-1.19-1.57-6.62,1.07-8.9,1.13-.97,2.38-.84,5.76-.87,9.77-.08,11.42-1.27,13.41,.27,2.86,2.2,2.5,7.06,2.46,8.54-2.12,72.11-5.56,222.49-6.47,222.49s-12.82-170.87-16.23-221.52Z"/>
      <path class="cls-1" d="M122.94,450.59c31.95,1.71,63.54,2.91,95.07-1.38,7.27-.99,14.58-2.31,21.1-5.84,7.82-4.23,8.18-8.95,.9-14.16-11.88-8.5-25.9-10.04-39.89-10.89-30.58-1.84-60.97-.08-92.31,6.3,3.16-5.41,7.86-6.61,11.92-7.69,40.12-10.64,80.47-12.44,120.95-1.99,7.2,1.86,13.66,5.33,19.14,10.51,6.16,5.83,6.06,11.25-.76,16.51-6.24,4.81-13.35,7.57-20.9,9.5-35.93,9.18-72.03,9.17-108.24,1.95-2.42-.48-4.66-1.87-6.98-2.83Z"/>
      <path class="cls-1" d="M287.76,402.32c-77.91-25.67-153.75-26.93-230.61,2.43,7.83-11.18,18.26-16.12,29.15-20.04,34.94-12.58,71.28-13.92,107.81-12.29,23.2,1.03,46.13,4.37,68.02,12.66,9.31,3.53,18.14,7.98,25.62,17.24Z"/>
    </g>
    <g>
      <path class="cls-3" d="M51.43,337.77c-4.06-2.67-8.51-230.42-9.88-272.27-.31-9.37,12.78-26.77,21.45-29.02,5.52-1.43,5.21,2.62,5.08,5.84-.85,22.02-14.8,267.02-16.65,295.45Z"/>
      <path class="cls-1" d="M295.82,336.07c-4.59-76.39-9.17-152.78-13.77-229.18-1.24-20.56-2.66-41.1-3.75-61.67-.18-3.42-2.28-8.2,1.53-10.12,4.26-2.15,7.11,2.55,10.35,4.7,12.09,8.03,15.57,18.48,14.99,33.56-3.37,87.52-8.78,263.84-9.34,262.71Z"/>
      <path class="cls-1" d="M102.75,25.79c-.24-4.13-2.2-9.98,3.15-11.73,6.86-2.24,14.38-3.93,21.47-3.49,4,.25,1.79,6.37,1.65,9.73-2.57,59.95-9,245.86-9.92,245.9-.77,.04-13.91-198.54-16.34-240.42Z"/>
      <path class="cls-1" d="M219.09,20.2c-.71-9.34,1.82-10.79,10.29-8.36,15.3,4.39,15.27,4.02,14.72,19.84-2.43,70.13-8.11,221.32-8.58,226.78-.17,0-13.44-199.1-16.43-238.26Z"/>
      <path class="cls-1" d="M162.35,15.04c-.08-1.19-1.57-6.62,1.07-8.9,1.13-.97,2.38-.84,5.76-.87,9.77-.08,11.42-1.27,13.41,.27,2.86,2.2,2.5,7.06,2.46,8.54-2.12,72.11-5.56,222.49-6.47,222.49s-12.82-170.87-16.23-221.52Z"/>
      <path class="cls-1" d="M122.94,450.59c31.95,1.71,63.54,2.91,95.07-1.38,7.27-.99,14.58-2.31,21.1-5.84,7.82-4.23,8.18-8.95,.9-14.16-11.88-8.5-25.9-10.04-39.89-10.89-30.58-1.84-60.97-.08-92.31,6.3,3.16-5.41,7.86-6.61,11.92-7.69,40.12-10.64,80.47-12.44,120.95-1.99,7.2,1.86,13.66,5.33,19.14,10.51,6.16,5.83,6.06,11.25-.76,16.51-6.24,4.81-13.35,7.57-20.9,9.5-35.93,9.18-72.03,9.17-108.24,1.95-2.42-.48-4.66-1.87-6.98-2.83Z"/>
      <path class="cls-1" d="M287.76,402.32c-77.91-25.67-153.75-26.93-230.61,2.43,7.83-11.18,18.26-16.12,29.15-20.04,34.94-12.58,71.28-13.92,107.81-12.29,23.2,1.03,46.13,4.37,68.02,12.66,9.31,3.53,18.14,7.98,25.62,17.24Z"/>
    </g>
  </g>
  <text class="cls-5" transform="translate(362.23 418.98)"><tspan class="cls-1" x="0" y="0">GOURM’</tspan><tspan class="cls-4" x="1257.5" y="0">EDHEC</tspan></text>
</svg>